<?xml version="1.0" encoding="UTF-8" standalone="no"?>
<svg
   xmlns:dc="http://purl.org/dc/elements/1.1/"
   xmlns:cc="http://creativecommons.org/ns#"
   xmlns:rdf="http://www.w3.org/1999/02/22-rdf-syntax-ns#"
   xmlns:svg="http://www.w3.org/2000/svg"
   xmlns="http://www.w3.org/2000/svg"
   xmlns:sodipodi="http://sodipodi.sourceforge.net/DTD/sodipodi-0.dtd"
   xmlns:inkscape="http://www.inkscape.org/namespaces/inkscape"
   width="505"
   height="500"
   viewBox="0 0 133.61458 132.29167"
   version="1.1"
   id="svg926"
   inkscape:version="1.0.1 (3bc2e813f5, 2020-09-07)"
   sodipodi:docname="shipBig.svg">
  <defs
     id="defs920" />
  <sodipodi:namedview
     id="base"
     pagecolor="#ffffff"
     bordercolor="#666666"
     borderopacity="1.0"
     inkscape:pageopacity="0.0"
     inkscape:pageshadow="2"
     inkscape:zoom="1.4"
     inkscape:cx="310.59484"
     inkscape:cy="333.67733"
     inkscape:document-units="mm"
     inkscape:current-layer="layer1"
     inkscape:document-rotation="0"
     showgrid="false"
     units="px"
     inkscape:window-width="1584"
     inkscape:window-height="858"
     inkscape:window-x="8"
     inkscape:window-y="34"
     inkscape:window-maximized="0" />
  <metadata
     id="metadata923">
    <rdf:RDF>
      <cc:Work
         rdf:about="">
        <dc:format>image/svg+xml</dc:format>
        <dc:type
           rdf:resource="http://purl.org/dc/dcmitype/StillImage" />
        <dc:title></dc:title>
      </cc:Work>
    </rdf:RDF>
  </metadata>
  <g
     inkscape:label="Layer 1"
     inkscape:groupmode="layer"
     id="layer1">
    <g
       id="g1514"
       transform="translate(-4.9632914,-0.71906528)">
      <path
         id="path876"
         style="fill:#175f78;fill-opacity:1;stroke-width:1.32291;stroke-linecap:round;stroke-opacity:0.899747"
         d="m 10.644616,39.002855 c -3.2943799,-0.0083 -5.3817049,0.20978 -5.5629709,0.68213 -0.261117,0.680421 0.738161,5.199213 2.022607,9.147244 3.0738769,9.448361 7.6362719,18.026543 14.6032539,27.456723 1.171813,1.5861 2.196809,3.05671 2.277904,3.26802 0.08109,0.21131 12.928934,15.391149 11.769345,16.825579 -2.761377,3.41583 20.558545,16.253979 20.566747,16.911699 0.01005,0.80761 0.933741,1.83725 1.909974,2.12855 1.184963,0.35358 4.714584,0.35992 9.835568,0.0176 2.343098,-0.15664 -36.447899,9.39868 3.466729,7.67742 53.140147,0.0501 42.040697,-1.20768 44.024257,-1.57436 3.51721,-0.65019 4.92619,-1.97299 6.06369,-5.69164 0.82701,-2.70363 17.09623,-42.619728 16.31541,-44.209588 -0.79023,-1.60897 -2.17402,-2.2422 -7.7339,-3.53983 C 115.63097,64.701312 111.2423,63.319422 90.792173,55.692274 75.585748,50.020832 72.720284,49.019866 67.581706,47.584758 56.103446,44.379103 46.11733,42.367299 33.940861,40.807911 24.978947,39.660196 16.135249,39.016745 10.644616,39.002852 Z"
         sodipodi:nodetypes="sscssccsscssscsssss" />
      <path
         style="fill:#175f78;fill-opacity:1;stroke-width:1.32291;stroke-linecap:round;stroke-opacity:0.899747"
         d="M 121.64137,62.804722 C 115.77942,61.180547 105.05425,57.486755 92.701724,52.837785 81.843885,48.751361 72.150584,45.398688 66.773562,43.869892 l -2.423901,-0.689158 c 0,0 -0.84574,-1.80811 -0.838305,-2.774069 0.0071,-0.919197 0.838305,-2.627167 0.838305,-2.627167 l 1.983185,-0.528182 c 1.50151,-0.399897 3.457416,-0.558398 8.05299,-0.652592 7.062762,-0.144762 6.406357,0.275484 6.412813,-4.105678 l 0.004,-2.717683 h 8.079608 8.07961 v 3.378742 3.37874 l 6.096423,0.0021 c 9.13614,0.0033 10.25681,0.187878 14.93562,2.459384 4.29829,2.086761 7.25456,3.961307 7.82712,4.963096 0.27665,0.484071 0.3982,3.164668 0.46593,10.276957 0.087,9.13221 0.0646,9.62119 -0.44069,9.60491 -0.29281,-0.009 -2.18501,-0.47506 -4.20492,-1.03471 z"
         id="path878"
         sodipodi:nodetypes="csscacsssccccccsssscc" />
      <path
         style="fill:#175f78;fill-opacity:1;stroke-width:1.32291;stroke-linecap:round;stroke-opacity:0.899747"
         d="m 80.640137,26.168021 c -0.231961,-0.604464 0.327183,-3.517151 0.880612,-4.587372 0.687309,-1.3291 1.987921,-1.616411 7.361529,-1.626161 6.610089,-0.01199 7.514429,0.466468 8.042039,4.254785 0.14504,1.041451 0.20748,1.953962 0.1388,2.027802 -0.0687,0.07384 -3.753328,0.189248 -8.188062,0.25646 -7.027413,0.106506 -8.085191,0.0647 -8.234918,-0.325514 z"
         id="path880" />
      <path
         d="m 32.922374,50.178876 c -0.03773,-0.0094 -0.15375,-0.02916 -0.259848,-0.0455 -0.896778,-0.136234 -1.810147,0.166838 -2.455095,0.81258 -0.701887,0.702337 -0.990706,1.700758 -0.773483,2.673686 0.140282,0.625944 0.510804,1.210776 1.028171,1.61939 0.223123,0.178004 0.43307,0.297426 0.698844,0.400844 l 0.232013,0.08799 0.003,0.479595 c 0.0019,0.263173 7.93e-4,0.486254 -0.0028,0.496223 -0.0035,0.01 -0.05194,0.01548 -0.107553,0.01482 -0.339275,-0.0097 -0.575495,0.107521 -0.697494,0.346337 -0.02514,0.05088 -0.05101,0.07726 -0.06993,0.07814 -0.01894,7.93e-4 -0.280432,0.0032 -0.582533,0.0045 -0.30271,0.003 -0.689398,0.0065 -0.859128,0.0072 -0.169651,7.94e-4 -0.61812,0.0052 -0.998697,0.0071 -0.378909,0.0026 -0.757793,0.0051 -0.838491,0.0069 l -0.148034,0.0026 -0.01767,-0.05641 c -0.04178,-0.13181 -0.211905,-0.451582 -0.304509,-0.571224 -0.16592,-0.214017 -0.340678,-0.343564 -0.572744,-0.425985 -0.472016,-0.163822 -0.936757,0.0324 -1.279551,0.537221 -0.0884,0.131318 -0.110702,0.17944 -0.19947,0.429818 -0.08189,0.235987 -0.102896,0.312507 -0.120914,0.466384 -0.08842,0.764439 0.112289,1.452324 0.551497,1.882224 0.154464,0.150461 0.24945,0.209482 0.431695,0.274598 0.454739,0.159724 0.912653,-0.02212 1.24333,-0.49204 0.09173,-0.13017 0.248655,-0.448133 0.274452,-0.554636 l 0.01233,-0.05158 0.289322,-0.0019 c 0.309907,-0.0024 1.039892,-0.0078 1.937888,-0.0145 0.304377,-0.0024 0.705511,-0.0047 0.888577,-0.0063 l 0.334962,-0.0048 0.04948,0.09352 c 0.02717,0.0504 0.07975,0.118923 0.11602,0.153866 0.07869,0.07385 0.279003,0.161994 0.382958,0.168288 0.04892,0.0039 0.07218,0.01201 0.07641,0.02653 0.0021,0.01003 -0.007,0.165153 -0.01979,0.341347 -0.0531,0.743177 -0.09446,1.795822 -0.137689,3.54052 -0.05929,2.4188 -0.09856,3.3474 -0.176742,4.18429 -0.149966,1.60152 -0.426852,2.39923 -0.843492,2.44083 -0.621665,0.0636 -1.705663,-0.54734 -2.916105,-1.64157 -0.250931,-0.22674 -0.776658,-0.76676 -0.953743,-0.98091 -0.169969,-0.20238 -0.333958,-0.43806 -0.332952,-0.4731 7.94e-4,-0.0295 0.342873,-0.0597 0.637117,-0.0545 l 0.261461,0.003 0.513133,-0.4215 c 0.439473,-0.35953 0.510355,-0.42431 0.488897,-0.44294 -0.01429,-0.0124 -1.085268,-0.55359 -2.380747,-1.20436 -1.29548,-0.65075 -2.363682,-1.18912 -2.375244,-1.19872 -0.01323,-0.0102 -0.02111,-0.004 -0.02368,0.0253 -0.0042,0.0228 0.01775,0.50149 0.04752,1.06487 0.02979,0.56338 0.09877,1.91503 0.154305,3.00503 0.05554,1.09 0.102843,1.98908 0.107209,1.99803 0.01617,0.0391 0.248232,-0.18944 0.361553,-0.35494 0.192061,-0.2797 0.511016,-0.79093 0.801899,-1.28026 l 0.09827,-0.16513 0.07583,0.16784 c 0.04117,0.0906 0.07628,0.17729 0.07887,0.19123 0.0099,0.0463 0.351631,0.6714 0.505487,0.92031 0.359912,0.58859 1.190439,1.76882 1.498626,2.13091 1.117547,1.31895 3.091894,2.3208 4.992556,2.53173 1.051163,0.11533 2.018956,-0.001 3.082263,-0.37145 0.116761,-0.0414 0.294429,-0.10263 0.391663,-0.13593 0.916305,-0.31693 1.734846,-0.87263 2.444459,-1.66167 0.469874,-0.52217 0.819415,-1.03026 1.566968,-2.28281 0.197671,-0.32803 0.446961,-0.73498 0.555255,-0.90221 0.208148,-0.32068 0.477626,-0.70011 0.506756,-0.71421 0.01117,-0.005 0.0675,0.0737 0.129117,0.17517 0.168434,0.28191 0.451115,0.72825 0.642303,1.01434 l 0.171529,0.25692 0.225398,0.17135 0.223811,0.17078 0.02365,-0.0681 c 0.015,-0.0432 0.02635,-0.29064 0.03307,-0.6533 0.0034,-0.32097 0.01783,-1.22095 0.03135,-2.00021 0.01352,-0.77926 0.02926,-1.7421 0.03469,-2.1387 0.0061,-0.39826 0.01304,-0.83157 0.01582,-0.96283 0.0049,-0.13235 0.0026,-0.24866 -0.0019,-0.25761 -0.0036,-0.0107 -1.062302,0.56048 -2.351193,1.2695 -1.288309,0.70736 -2.35085,1.29008 -2.360877,1.29219 -0.01064,0.004 -0.01352,0.0121 -0.0087,0.0193 0.0072,0.006 0.225928,0.17525 0.486092,0.3754 l 0.474584,0.36024 0.129143,-0.007 c 0.204337,-0.0147 0.489717,-0.0106 0.643625,0.007 0.136102,0.0156 0.142743,0.0179 0.153935,0.0553 0.02622,0.0854 -0.112898,0.35744 -0.299244,0.58324 -0.432012,0.52042 -1.219703,1.23394 -2.079969,1.87759 -0.254953,0.19269 -0.337899,0.24396 -0.573484,0.35399 -0.464424,0.2168 -0.839735,0.33235 -1.143159,0.34808 -0.168672,0.008 -0.383196,-0.0548 -0.474451,-0.14049 -0.110067,-0.1015 -0.186902,-0.22874 -0.246433,-0.4114 -0.135281,-0.39888 -0.179493,-0.68985 -0.257625,-1.61823 -0.110701,-1.35495 -0.298688,-4.47222 -0.459052,-7.663686 l -0.03582,-0.701432 0.127555,-0.01344 c 0.220001,-0.02233 0.418571,-0.154509 0.511017,-0.340294 l 0.03823,-0.07797 0.457359,-0.0033 c 1.433803,-0.01069 2.344631,-0.01669 2.650648,-0.01847 l 0.343853,-0.0035 0.02307,0.0676 c 0.08795,0.267012 0.279877,0.583149 0.45474,0.749985 0.190262,0.181493 0.446378,0.302035 0.675375,0.318206 0.548614,0.0396 1.059365,-0.412522 1.268968,-1.12373 0.23757,-0.813216 0.05839,-1.713362 -0.4427,-2.222482 -0.15883,-0.159398 -0.268076,-0.230849 -0.455878,-0.296026 -0.275881,-0.09576 -0.47244,-0.08204 -0.74332,0.04925 -0.325728,0.155088 -0.550386,0.42159 -0.725461,0.856155 l -0.06146,0.155575 -0.08128,0.0034 c -0.04561,0.0028 -0.39116,0.0057 -0.77171,0.0077 -0.378936,0.0026 -0.829045,0.0065 -0.998723,0.0071 -1.28307,0.0109 -1.577366,0.01116 -1.590648,0.0065 -0.0084,-0.0029 -0.03564,-0.04216 -0.05961,-0.08586 -0.05712,-0.103624 -0.12745,-0.174593 -0.235744,-0.238233 -0.107632,-0.06531 -0.20312,-0.0854 -0.411136,-0.08686 -0.08737,-5.29e-4 -0.157427,-0.0024 -0.157929,-0.0064 -0.0013,-0.0024 -0.0045,-0.223142 -0.0051,-0.489636 l -0.0029,-0.485169 0.113453,-0.04255 c 0.691991,-0.260736 1.248992,-0.765693 1.58496,-1.438614 0.302869,-0.604353 0.372851,-1.315603 0.196586,-1.998736 -0.07752,-0.302488 -0.289111,-0.73905 -0.477944,-0.988952 -0.409522,-0.536913 -0.977344,-0.91277 -1.62351,-1.073729 z m 0.128958,1.586603 c 0.526362,0.355865 0.764275,1.000823 0.591608,1.605658 -0.115755,0.408599 -0.384572,0.732412 -0.759037,0.915279 -0.242887,0.120512 -0.489955,0.166984 -0.761206,0.149161 -0.120068,-0.0081 -0.195501,-0.02688 -0.360045,-0.08399 -0.249264,-0.08653 -0.36576,-0.158621 -0.544381,-0.336072 -0.361606,-0.363849 -0.505962,-0.83852 -0.403542,-1.337402 0.100674,-0.493911 0.484822,-0.924782 0.963534,-1.08077 0.184917,-0.06059 0.417777,-0.08776 0.591687,-0.06836 0.07334,0.0087 0.143907,0.01458 0.153379,0.01413 0.05064,-0.0011 0.439182,0.161753 0.528003,0.222379 z"
         id="path882"
         style="fill:#ffffff;stroke:none;stroke-width:0.0352777" />
      <ellipse
         style="fill:#175f78;fill-opacity:1;stroke-width:1.32292;stroke-linecap:round;stroke-opacity:0.899747"
         id="ellipse884"
         cx="106.19479"
         cy="7.6679673"
         rx="7.4188905"
         ry="6.3808885" />
      <ellipse
         style="fill:#175f78;fill-opacity:1;stroke-width:1.32292;stroke-linecap:round;stroke-opacity:0.899747"
         id="ellipse886"
         cx="95.220917"
         cy="25.908617"
         rx="6.3818955"
         ry="4.4226165"
         transform="rotate(-9.0019456)" />
      <ellipse
         style="fill:#175f78;fill-opacity:1;stroke-width:1.32292;stroke-linecap:round;stroke-opacity:0.899747"
         id="ellipse888"
         cx="85.635185"
         cy="37.056629"
         rx="3.7842467"
         ry="2.929281"
         transform="rotate(-14.604685)" />
    </g>
  </g>
</svg>
